<?xml version="1.0" encoding="utf-8"?>
<svg xmlns="http://www.w3.org/2000/svg" viewBox="0 0 48 48" width="480" height="480">
  <path fill="#81c784" d="M3.016,19.721l8.191,18.246l32.768-14.71L35.784,5.011L3.016,19.721z" />
  <path fill="#1b5e20" d="M3.016,19.721l8.191,18.246l32.768-14.71L35.784,5.011L3.016,19.721z M12.208,35.325L5.655,20.728 L34.782,7.653l6.553,14.597L12.208,35.325z" />
  <path fill="#1b5e20" d="M33.508 15A1.996 2 0 1 0 33.508 19A1.996 2 0 1 0 33.508 15Z" transform="rotate(-24.179 33.505 17)" />
  <path fill="#1b5e20" d="M23.495 15.489A5.986 6 0 1 0 23.495 27.489A5.986 6 0 1 0 23.495 15.489Z" transform="rotate(-24.175 23.497 21.491)" />
  <path fill="#1b5e20" d="M6.315 18.48A2.494 2.5 0 1 0 6.315 23.48A2.494 2.5 0 1 0 6.315 18.48Z" transform="rotate(-24.175 6.316 20.982)" />
  <path fill="#1b5e20" d="M34.532 5.814A2.494 2.5 0 1 0 34.532 10.814A2.494 2.5 0 1 0 34.532 5.814Z" transform="rotate(-24.175 34.535 8.315)" />
  <path fill="#1b5e20" d="M40.675 19.497A2.494 2.5 0 1 0 40.675 24.497A2.494 2.5 0 1 0 40.675 19.497Z" transform="rotate(-24.175 40.678 22)" />
  <path fill="#a5d6a7" d="M8 23H44V43H8z" />
  <path fill="#388e3c" d="M8,23v20h36V23H8z M10,41V25h32v16H10z" />
  <path fill="#388e3c" d="M15 31A2 2 0 1 0 15 35 2 2 0 1 0 15 31zM37 31A2 2 0 1 0 37 35 2 2 0 1 0 37 31zM26 27A6 6 0 1 0 26 39 6 6 0 1 0 26 27zM43 38.511c-.419-.317-.935-.511-1.5-.511-1.381 0-2.5 1.119-2.5 2.5 0 .566.195 1.082.512 1.501H43V38.511zM10.5 37.999c-.565 0-1.081.195-1.5.511V42h3.488C12.805 41.581 13 41.065 13 40.499 13 39.118 11.881 37.999 10.5 37.999zM9 27.489C9.419 27.805 9.935 28 10.5 28c1.381 0 2.5-1.119 2.5-2.5 0-.565-.195-1.081-.511-1.5H9V27.489zM41.5 28c.565 0 1.081-.195 1.5-.511V24h-3.489C39.195 24.419 39 24.935 39 25.5 39 26.881 40.119 28 41.5 28z" />
</svg>