<?xml version="1.0" encoding="utf-8"?>
<svg xmlns="http://www.w3.org/2000/svg" viewBox="0 0 32 32" width="512" height="512">
  <path d="M6 4L6 28L22.101562 28C22.568291 30.275013 24.592052 32 27 32C29.750424 32 32 29.750424 32 27C32 24.551208 30.215074 22.502605 27.882812 22.082031C27.626101 21.007095 26.931035 20.106502 26 19.560547L26 4L6 4 z M 8 6L24 6L24 19C21.802937 19 20 20.802937 20 23C20 24.199564 20.542872 25.269064 21.386719 26L8 26L8 6 z M 10 10L10 12L22 12L22 10L10 10 z M 10 16L10 18L22 18L22 16L10 16 z M 10 20L10 22L17 22L17 20L10 20 z M 24 21C24.812185 21 25.497549 21.472151 25.8125 22.158203C24.484681 22.486493 23.373921 23.346861 22.699219 24.5C22.274535 24.139285 22 23.608953 22 23C22 21.885063 22.885063 21 24 21 z M 27 24C28.671576 24 30 25.328424 30 27C30 28.671576 28.671576 30 27 30C25.328424 30 24 28.671576 24 27C24 25.328424 25.328424 24 27 24 z" fill="#060606" />
</svg>