<?xml version="1.0" encoding="utf-8"?>
<svg xmlns="http://www.w3.org/2000/svg" width="480" height="480" viewBox="0 0 48 48">
  <path fill="#e69329" d="M40.407,16.273h-4.789v8.142c0,1.323,1.072,2.395,2.395,2.395c1.323,0,2.395-1.072,2.395-2.395V16.273z M35.617,15.315h-4.789v8.142c0,1.323,1.072,2.395,2.395,2.395c1.323,0,2.395-1.072,2.395-2.395V15.315z M30.828,14.358h-4.789v7.184c0,1.323,1.072,2.395,2.395,2.395s2.395-1.072,2.395-2.395V14.358z" />
  <path fill="#ffb74d" d="M46,26V7.869l-3.757-3.635C41.776,4,41.076,4,40.377,4H29.855v0.055c-0.484,0.099-0.943,0.341-1.299,0.735l-8.609,9.565c-0.884,0.981-0.803,2.494,0.178,3.378c0.457,0.412,1.028,0.615,1.598,0.615c0.655,0,1.306-0.267,1.778-0.791l7.31-7.818v8.609h11.522V26H46z" />
  <rect width="9.459" height="8.503" x="25.322" y="8.979" fill="#ffb74d" transform="rotate(134.999 30.052 13.231)" />
  <rect width="32" height="4" x="-.961" y="30.371" fill="#ff4081" transform="rotate(45.001 15.04 32.372)" />
  <rect width="4" height="23.082" x="9.886" y="23.983" fill="#ff4081" transform="rotate(45.001 11.887 35.524)" />
  <path fill="#e69329" d="M37.355,11.291l-0.004-0.004l-4.882,5.526l4.642,0.506l5.254-2.961l-1.916-3.821l-1.695-0.857L38.609,9.84l-0.627,0.726l0,0l-0.027,0.031L37.355,11.291z" />
  <polygon fill="#c51162" points="21.234,28.947 15.565,28.959 20.237,24.287 23.065,27.115" />
  <path fill="#e0e0e0" d="M45.569,5.789l-4.032-4.032c-0.644-0.644-1.688-0.644-2.332,0L20.122,20.84l-1.055,4.601l2.828,2.828l4.591-1.066L45.569,8.121C46.213,7.477,46.213,6.433,45.569,5.789z" />
  <path fill="#ffb74d" d="M46,18.752l-3.457-4.268l-5.138,2.884l-7.793-0.849c-2.198-0.363-3.641,0.286-4.183,1.899c-0.506,1.591,0.561,2.974,1.941,3.504l10.226,2.926c0.69,0.267,4.025,1.785,6.423,0.85c0.698-0.272,1.368-0.624,1.981-0.994V18.752z" />
  <rect width="9.175" height="4" x="35.313" y="5.388" fill="#ff4081" transform="rotate(45.004 39.899 7.387)" />
  <path fill="#ffcdd2" d="M27.281,20.671c-0.873-0.393-1.262-1.418-0.87-2.291c0.394-0.873,1.42-1.262,2.292-0.868C29.576,17.903,28.155,21.064,27.281,20.671" />
</svg>