<?xml version="1.0" encoding="utf-8"?>
<svg xmlns="http://www.w3.org/2000/svg" viewBox="0 0 128 128" width="4096" height="4096">
  <path d="M17 1C9.8 1 4 6.8 4 14L4 44C4 45.7 5.3 47 7 47C8.7 47 10 45.7 10 44L10 14C10 10.1 13.1 7 17 7L64.900391 7C66.800391 7 68.500391 7.7 69.900391 9L76.900391 16L41.199219 16C35.599219 16 30.600391 19.600391 28.900391 24.900391L17.699219 58.400391C16.599219 61.800391 16 65.300781 16 68.800781L16 114C16 121.2 21.8 127 29 127L69 127C76.2 127 82 121.2 82 114L82 68.900391C82 66.000391 82.500391 63.100391 83.400391 60.400391L92.5 33.199219C93.8 29.199219 93.199219 24.9 90.699219 21.5C89.799219 20.3 88.799609 19.3 87.599609 18.5L74 4.8007812C71.6 2.4007813 68.300391 1 64.900391 1L17 1 z M 58.300781 32.560547C58.692969 32.530859 59.1 32.574219 59.5 32.699219C61.1 33.199219 61.900391 34.9 61.400391 36.5L57.400391 48.5C57.000391 49.8 55.799609 50.599609 54.599609 50.599609C54.299609 50.599609 53.999219 50.600391 53.699219 50.400391C51.999219 49.800391 51.099219 48.099609 51.699219 46.599609L55.699219 34.599609C56.074219 33.399609 57.124219 32.649609 58.300781 32.560547 z M 115.17578 62.851562C114.60684 62.82168 114.025 62.963281 113.5 63.300781L103.19922 69.5C102.29922 70.1 101.69922 71.099609 101.69922 72.099609C101.69922 72.599609 101.79961 73.199609 102.09961 73.599609C102.99961 74.999609 104.90078 75.399609 106.30078 74.599609L116.59961 68.400391C117.99961 67.500391 118.49961 65.700781 117.59961 64.300781C117.03711 63.425781 116.12402 62.901367 115.17578 62.851562 z M 49 81C56.2 81 62 86.8 62 94C62 101.2 56.2 107 49 107C41.8 107 36 101.2 36 94C36 86.8 41.8 81 49 81 z M 49 87 A 7 7 0 1 0 49 101 A 7 7 0 1 0 49 87 z M 110 90.900391C108.3 90.900391 107 92.200391 107 93.900391C107 95.600391 108.3 96.900391 110 96.900391L124 96.900391C125.7 96.900391 127 95.600391 127 93.900391C127 92.200391 125.7 90.900391 124 90.900391L110 90.900391 z M 104.59766 112.85156C103.62891 112.90137 102.69922 113.42578 102.19922 114.30078C101.89922 114.80078 101.80078 115.30078 101.80078 115.80078C101.70078 116.80078 102.29922 117.80039 103.19922 118.40039L113.5 124.59961C114.9 125.49961 116.79961 124.99961 117.59961 123.59961C118.49961 122.19961 117.99961 120.3 116.59961 119.5L106.30078 113.30078C105.77578 112.96328 105.17891 112.82168 104.59766 112.85156 z" fill="#42FF00" />
</svg>