<?xml version="1.0" encoding="utf-8"?>
<svg xmlns="http://www.w3.org/2000/svg" viewBox="0 0 32 32" width="4096" height="4096">
  <path d="M7.304688 4L4.664063 11.042969L6.804688 11.042969L8.695313 6L23.308594 6L25.199219 11.042969L27.332031 11.042969L24.691406 4 Z M 2 12L2 18L3.257813 18L6.257813 28L25.746094 28L28.746094 18L30 18L30 12 Z M 4 14L28 14L28 16L27.253906 16L24.253906 26L7.742188 26L4.742188 16L4 16 Z M 11 17L11 24L13 24L13 17 Z M 15 17L15 24L17 24L17 17 Z M 19 17L19 24L21 24L21 17Z" />

  
</svg>